HIERARCHY
ROOT Hips
{
	OFFSET 0.000000 89.005402 0.000000
	CHANNELS 6 Xposition Yposition Zposition Xrotation Yrotation Zrotation
	JOINT Spine
	{
		OFFSET 0.116900 10.681000 0.373400
		CHANNELS 3 Xrotation Yrotation Zrotation
		JOINT Spine1
		{
			OFFSET 0.000000 13.840401 0.053500
			CHANNELS 3 Xrotation Yrotation Zrotation
			JOINT Spine2
			{
				OFFSET 0.000000 14.712700 -0.366200
				CHANNELS 3 Xrotation Yrotation Zrotation
				JOINT Neck
				{
					OFFSET 0.000000 35.415497 -3.314200
					CHANNELS 3 Xrotation Yrotation Zrotation
					JOINT Head
					{
						OFFSET 0.000000 16.899200 1.218300
						CHANNELS 3 Xrotation Yrotation Zrotation
						JOINT HeadTop_End
						{
							OFFSET 0.000000 22.206207 2.192500
							CHANNELS 3 Xrotation Yrotation Zrotation
							End Site
							{
								OFFSET 0.000000 22.314178 0.000000
							}
						}
					}
				}
				JOINT LeftShoulder
				{
					OFFSET 12.896400 26.716293 -4.548400
					CHANNELS 3 Xrotation Yrotation Zrotation
					JOINT LeftArm
					{
						OFFSET 19.027000 -4.857010 -1.718400
						CHANNELS 3 Xrotation Yrotation Zrotation
						JOINT LeftForeArm
						{
							OFFSET 24.179897 0.000000 0.000000
							CHANNELS 3 Xrotation Yrotation Zrotation
							JOINT LeftHand
							{
								OFFSET 27.156403 0.000000 0.000000
								CHANNELS 3 Xrotation Yrotation Zrotation
								JOINT LeftHandIndex1
								{
									OFFSET 16.441200 0.000000 0.000000
									CHANNELS 3 Xrotation Yrotation Zrotation
									JOINT LeftHandIndex2
									{
										OFFSET 4.821899 0.000000 0.000000
										CHANNELS 3 Xrotation Yrotation Zrotation
										JOINT LeftHandIndex3
										{
											OFFSET 6.386497 0.000000 0.000000
											CHANNELS 3 Xrotation Yrotation Zrotation
											JOINT LeftHandIndex4
											{
												OFFSET 5.188988 0.000000 0.000000
												CHANNELS 3 Xrotation Yrotation Zrotation
												End Site
												{
													OFFSET -0.178703 5.185913 0.000177
												}
											}
										}
									}
								}
								JOINT LeftHandThumb1
								{
									OFFSET 6.534897 -5.032593 5.900300
									CHANNELS 3 Xrotation Yrotation Zrotation
									JOINT LeftHandThumb2
									{
										OFFSET 3.818176 -2.204422 2.204423
										CHANNELS 3 Xrotation Yrotation Zrotation
										JOINT LeftHandThumb3
										{
											OFFSET 3.252098 -1.877594 1.877601
											CHANNELS 3 Xrotation Yrotation Zrotation
											JOINT LeftHandThumb4
											{
												OFFSET 5.251778 -3.032120 3.032117
												CHANNELS 3 Xrotation Yrotation Zrotation
												End Site
												{
													OFFSET 0.000023 6.780014 0.000000
												}
											}
										}
									}
								}
							}
						}
					}
				}
				JOINT RightShoulder
				{
					OFFSET -12.896300 26.716293 -4.548400
					CHANNELS 3 Xrotation Yrotation Zrotation
					JOINT RightArm
					{
						OFFSET -19.027000 -4.857010 -1.718400
						CHANNELS 3 Xrotation Yrotation Zrotation
						JOINT RightForeArm
						{
							OFFSET -24.179897 0.000000 0.000000
							CHANNELS 3 Xrotation Yrotation Zrotation
							JOINT RightHand
							{
								OFFSET -27.156403 0.000000 0.000000
								CHANNELS 3 Xrotation Yrotation Zrotation
								JOINT RightHandThumb1
								{
									OFFSET -6.591202 -4.852203 5.988100
									CHANNELS 3 Xrotation Yrotation Zrotation
									JOINT RightHandThumb2
									{
										OFFSET -3.818176 -2.204422 2.204423
										CHANNELS 3 Xrotation Yrotation Zrotation
										JOINT RightHandThumb3
										{
											OFFSET -3.252098 -1.877594 1.877601
											CHANNELS 3 Xrotation Yrotation Zrotation
											JOINT RightHandThumb4
											{
												OFFSET -5.251778 -3.032120 3.032117
												CHANNELS 3 Xrotation Yrotation Zrotation
												End Site
												{
													OFFSET -0.000023 6.780014 0.000000
												}
											}
										}
									}
								}
								JOINT RightHandIndex1
								{
									OFFSET -16.029404 0.000000 0.000000
									CHANNELS 3 Xrotation Yrotation Zrotation
									JOINT RightHandIndex2
									{
										OFFSET -5.213303 0.000000 0.000000
										CHANNELS 3 Xrotation Yrotation Zrotation
										JOINT RightHandIndex3
										{
											OFFSET -6.386528 0.000000 0.000000
											CHANNELS 3 Xrotation Yrotation Zrotation
											JOINT RightHandIndex4
											{
												OFFSET -5.189026 0.000000 0.000000
												CHANNELS 3 Xrotation Yrotation Zrotation
												End Site
												{
													OFFSET 0.236702 5.183624 0.001972
												}
											}
										}
									}
								}
							}
						}
					}
				}
			}
		}
	}
	JOINT LeftUpLeg
	{
		OFFSET 14.073000 -7.904099 -1.463000
		CHANNELS 3 Xrotation Yrotation Zrotation
		JOINT LeftLeg
		{
			OFFSET -0.109806 -34.073280 4.093200
			CHANNELS 3 Xrotation Yrotation Zrotation
			JOINT LeftFoot
			{
				OFFSET 0.109806 -29.899420 -6.319000
				CHANNELS 3 Xrotation Yrotation Zrotation
				JOINT LeftToeBase
				{
					OFFSET 1.551100 -14.988700 20.535801
					CHANNELS 3 Xrotation Yrotation Zrotation
					JOINT LeftToe_End
					{
						OFFSET 0.221200 0.570800 13.248301
						CHANNELS 3 Xrotation Yrotation Zrotation
						End Site
						{
							OFFSET 0.000000 13.262435 0.000000
						}
					}
				}
			}
		}
	}
	JOINT RightUpLeg
	{
		OFFSET -13.839300 -7.904099 -1.463000
		CHANNELS 3 Xrotation Yrotation Zrotation
		JOINT RightLeg
		{
			OFFSET 0.109694 -34.073219 4.093300
			CHANNELS 3 Xrotation Yrotation Zrotation
			JOINT RightFoot
			{
				OFFSET -0.109694 -29.899384 -6.319200
				CHANNELS 3 Xrotation Yrotation Zrotation
				JOINT RightToeBase
				{
					OFFSET -1.551100 -14.988700 20.535801
					CHANNELS 3 Xrotation Yrotation Zrotation
					JOINT RightToe_End
					{
						OFFSET -0.221200 0.570900 13.248299
						CHANNELS 3 Xrotation Yrotation Zrotation
						End Site
						{
							OFFSET 0.000000 13.262440 0.000000
						}
					}
				}
			}
		}
	}
}
MOTION
Frames: 9
Frame Time: 0.033333
-52.525406 83.572586 66.924904 -26.347287 -82.305255 -31.144314 2.249946 -2.953056 2.442379 4.376641 -4.839540 1.581712 4.376640 -4.839539 1.581712 -2.748953 1.508506 0.610066 -0.432680 6.092839 0.063521 0.000000 0.000000 0.000000 0.578924 -8.713811 -10.602907 -0.896920 -8.225111 -58.548935 14.636266 -21.911276 5.858089 -5.481974 -10.770602 2.902503 0.599978 6.911487 -23.883887 2.733490 1.542698 -36.765955 4.400529 -2.444494 -4.361223 -0.000001 0.000001 0.000004 25.111242 -2.687275 20.499100 9.304954 24.441176 -0.847867 -2.521163 -8.459266 -4.290574 -0.000001 0.000000 0.000001 0.795191 1.566873 21.462179 3.311359 -7.120127 62.766030 20.907977 13.710232 -5.669929 -4.485478 14.685819 -13.464740 3.824830 -12.345967 -1.042558 4.523887 -9.504800 0.488644 3.860022 -12.119587 -3.867362 -0.000001 0.000001 0.000002 3.545365 -9.668648 69.326707 8.886347 -3.241706 112.372560 5.374738 0.824713 34.768173 -0.000001 -0.000000 -0.000001 -2.342882 7.906397 7.601680 55.080428 19.902763 1.842396 23.595894 0.388042 6.988943 -43.765793 28.069605 -32.370162 0.000000 0.000000 -0.000000 -18.950444 -2.196484 11.445370 24.475836 -15.558095 0.137411 -7.722132 0.220859 -5.815859 0.913780 -0.000017 0.000002 -0.000000 0.000000 0.000000 
-55.863018 83.848953 67.842453 -33.963549 -84.472003 -37.697651 2.085768 -2.422250 2.165710 4.067469 -4.034686 1.152153 4.067469 -4.034697 1.152153 -2.574193 1.358892 0.660915 -0.321700 5.977910 -0.171526 -0.000000 -0.000000 -0.000000 0.556030 -8.690985 -11.164199 -0.756301 -8.530684 -59.025668 17.000776 -20.697777 6.472496 -5.477551 -10.013737 2.524446 0.599981 6.911485 -23.883889 2.733491 1.542695 -36.765955 4.400535 -2.444491 -4.361229 -0.000001 0.000001 -0.000000 25.111240 -2.687272 20.499093 9.304953 24.441176 -0.847865 -2.521163 -8.459266 -4.290576 -0.000000 -0.000001 0.000001 0.761192 1.894901 21.370607 1.517727 -5.806354 62.526687 19.200227 14.384144 -5.357049 -4.507609 12.793772 -13.270304 3.824829 -12.345967 -1.042555 4.523887 -9.504798 0.488643 3.860023 -12.119582 -3.867358 -0.000000 -0.000001 -0.000001 3.545365 -9.668647 69.326707 8.886347 -3.241706 112.372560 5.374739 0.824716 34.768173 0.000000 -0.000000 -0.000002 -9.257406 6.602428 5.160854 62.092075 22.501599 1.829432 11.291004 0.251715 5.244170 -36.576957 19.363636 -28.509799 0.000000 -0.000000 -0.000001 -17.116613 -2.446682 10.280660 25.922199 -12.690994 -0.117309 -10.188903 0.411087 -5.140503 1.594632 -0.000003 0.000002 -0.000000 -0.000000 0.000000 
-59.236740 84.083351 68.739296 -50.605076 -86.570141 -53.319745 1.920780 -1.882566 1.925815 3.760695 -3.229915 0.837717 3.760697 -3.229900 0.837716 -2.456511 1.293824 0.395875 -0.221442 5.859507 -0.220262 0.000000 0.000000 -0.000000 0.507157 -8.550717 -12.023621 -0.660993 -8.734768 -59.319783 18.616609 -19.862981 6.825486 -5.440746 -9.264825 2.243195 0.599979 6.911491 -23.883891 2.733494 1.542698 -36.765952 4.400527 -2.444493 -4.361226 0.000000 0.000001 0.000002 25.111238 -2.687270 20.499097 9.304955 24.441176 -0.847867 -2.521160 -8.459266 -4.290578 0.000002 -0.000001 0.000003 0.716767 2.242590 21.001382 -0.849752 -4.275448 62.188859 17.796449 14.054410 -4.788246 -4.512650 11.746391 -12.844061 3.824829 -12.345968 -1.042558 4.523887 -9.504799 0.488641 3.860022 -12.119583 -3.867361 -0.000001 -0.000000 -0.000002 3.545366 -9.668648 69.326707 8.886348 -3.241706 112.372560 5.374740 0.824712 34.768173 -0.000000 -0.000000 -0.000002 -15.483991 5.640056 2.738038 65.024289 22.906469 1.634644 2.010169 0.431368 3.298578 -30.149346 11.364530 -22.206215 0.000001 0.000002 -0.000001 -15.193221 -2.677960 8.887895 26.912161 -9.790060 -0.286161 -12.420718 0.608346 -4.616789 2.503532 0.000007 0.000002 -0.000000 0.000000 0.000000 
-62.564690 84.326927 69.560577 -90.049002 -87.742270 -91.780537 1.818166 -1.398107 1.708335 3.579681 -2.533158 0.673620 3.579683 -2.533203 0.673622 -2.425336 1.360503 -0.177257 -0.112016 5.844289 -0.079481 -0.000000 0.000000 -0.000000 0.442763 -8.235284 -13.151889 -0.624791 -8.808440 -59.472260 19.132383 -19.316373 6.827554 -5.405346 -8.531766 1.793594 0.599976 6.911490 -23.883889 2.733494 1.542697 -36.765952 4.400530 -2.444493 -4.361225 -0.000001 0.000003 0.000003 25.111240 -2.687272 20.499098 9.304956 24.441175 -0.847868 -2.521161 -8.459268 -4.290581 -0.000001 0.000002 -0.000002 0.662909 2.643735 20.148739 -3.947871 -2.327080 62.260330 16.631075 11.939501 -3.786017 -4.421760 12.103409 -12.551299 3.824830 -12.345966 -1.042553 4.523887 -9.504800 0.488640 3.860022 -12.119585 -3.867359 0.000001 0.000001 0.000002 3.545365 -9.668648 69.326707 8.886348 -3.241705 112.372560 5.374741 0.824716 34.768166 0.000001 0.000001 -0.000001 -20.941852 5.283964 0.717835 63.654617 21.294342 1.389502 -3.303558 0.481405 2.279899 -24.436376 5.847525 -15.291904 -0.000000 0.000001 -0.000000 -12.898401 -2.931313 7.248606 27.013192 -6.917639 -0.340261 -13.867116 0.588405 -4.242408 3.382035 0.000018 0.000001 -0.000000 0.000000 -0.000000 
-62.564690 84.326927 69.560577 -90.049002 -87.742270 -91.780537 1.818166 -1.398107 1.708335 3.579681 -2.533158 0.673620 3.579683 -2.533203 0.673622 -2.425336 1.360503 -0.177257 -0.112016 5.844289 -0.079481 -0.000000 0.000000 -0.000000 0.442763 -8.235284 -13.151889 -0.624791 -8.808440 -59.472260 19.132383 -19.316373 6.827554 -5.405346 -8.531766 1.793594 0.599976 6.911490 -23.883889 2.733494 1.542697 -36.765952 4.400530 -2.444493 -4.361225 -0.000001 0.000003 0.000003 25.111240 -2.687272 20.499098 9.304956 24.441175 -0.847868 -2.521161 -8.459268 -4.290581 -0.000001 0.000002 -0.000002 0.662909 2.643735 20.148739 -3.947871 -2.327080 62.260330 16.631075 11.939501 -3.786017 -4.421760 12.103409 -12.551299 3.824830 -12.345966 -1.042553 4.523887 -9.504800 0.488640 3.860022 -12.119585 -3.867359 0.000001 0.000001 0.000002 3.545365 -9.668648 69.326707 8.886348 -3.241705 112.372560 5.374741 0.824716 34.768166 0.000001 0.000001 -0.000001 -20.941852 5.283964 0.717835 63.654617 21.294342 1.389502 -3.303558 0.481405 2.279899 -24.436376 5.847525 -15.291904 -0.000000 0.000001 -0.000000 -12.898401 -2.931313 7.248606 27.013192 -6.917639 -0.340261 -13.867116 0.588405 -4.242408 3.382035 0.000018 0.000001 -0.000000 0.000000 -0.000000 
-62.564690 84.326927 69.560577 -90.049002 -87.742270 -91.780537 1.818166 -1.398107 1.708335 3.579681 -2.533158 0.673620 3.579683 -2.533203 0.673622 -2.425336 1.360503 -0.177257 -0.112016 5.844289 -0.079481 -0.000000 0.000000 -0.000000 0.442763 -8.235284 -13.151889 -0.624791 -8.808440 -59.472260 19.132383 -19.316373 6.827554 -5.405346 -8.531766 1.793594 0.599976 6.911490 -23.883889 2.733494 1.542697 -36.765952 4.400530 -2.444493 -4.361225 -0.000001 0.000003 0.000003 25.111240 -2.687272 20.499098 9.304956 24.441175 -0.847868 -2.521161 -8.459268 -4.290581 -0.000001 0.000002 -0.000002 0.662909 2.643735 20.148739 -3.947871 -2.327080 62.260330 16.631075 11.939501 -3.786017 -4.421760 12.103409 -12.551299 3.824830 -12.345966 -1.042553 4.523887 -9.504800 0.488640 3.860022 -12.119585 -3.867359 0.000001 0.000001 0.000002 3.545365 -9.668648 69.326707 8.886348 -3.241705 112.372560 5.374741 0.824716 34.768166 0.000001 0.000001 -0.000001 -20.941852 5.283964 0.717835 63.654617 21.294342 1.389502 -3.303558 0.481405 2.279899 -24.436376 5.847525 -15.291904 -0.000000 0.000001 -0.000000 -12.898401 -2.931313 7.248606 27.013192 -6.917639 -0.340261 -13.867116 0.588405 -4.242408 3.382035 0.000018 0.000001 -0.000000 0.000000 -0.000000 
-62.564690 84.326927 69.560577 -90.049002 -87.742270 -91.780537 1.818166 -1.398107 1.708335 3.579681 -2.533158 0.673620 3.579683 -2.533203 0.673622 -2.425336 1.360503 -0.177257 -0.112016 5.844289 -0.079481 -0.000000 0.000000 -0.000000 0.442763 -8.235284 -13.151889 -0.624791 -8.808440 -59.472260 19.132383 -19.316373 6.827554 -5.405346 -8.531766 1.793594 0.599976 6.911490 -23.883889 2.733494 1.542697 -36.765952 4.400530 -2.444493 -4.361225 -0.000001 0.000003 0.000003 25.111240 -2.687272 20.499098 9.304956 24.441175 -0.847868 -2.521161 -8.459268 -4.290581 -0.000001 0.000002 -0.000002 0.662909 2.643735 20.148739 -3.947871 -2.327080 62.260330 16.631075 11.939501 -3.786017 -4.421760 12.103409 -12.551299 3.824830 -12.345966 -1.042553 4.523887 -9.504800 0.488640 3.860022 -12.119585 -3.867359 0.000001 0.000001 0.000002 3.545365 -9.668648 69.326707 8.886348 -3.241705 112.372560 5.374741 0.824716 34.768166 0.000001 0.000001 -0.000001 -20.941852 5.283964 0.717835 63.654617 21.294342 1.389502 -3.303558 0.481405 2.279899 -24.436376 5.847525 -15.291904 -0.000000 0.000001 -0.000000 -12.898401 -2.931313 7.248606 27.013192 -6.917639 -0.340261 -13.867116 0.588405 -4.242408 3.382035 0.000018 0.000001 -0.000000 0.000000 -0.000000 
-62.564690 84.326927 69.560577 -90.049002 -87.742270 -91.780537 1.818166 -1.398107 1.708335 3.579681 -2.533158 0.673620 3.579683 -2.533203 0.673622 -2.425336 1.360503 -0.177257 -0.112016 5.844289 -0.079481 -0.000000 0.000000 -0.000000 0.442763 -8.235284 -13.151889 -0.624791 -8.808440 -59.472260 19.132383 -19.316373 6.827554 -5.405346 -8.531766 1.793594 0.599976 6.911490 -23.883889 2.733494 1.542697 -36.765952 4.400530 -2.444493 -4.361225 -0.000001 0.000003 0.000003 25.111240 -2.687272 20.499098 9.304956 24.441175 -0.847868 -2.521161 -8.459268 -4.290581 -0.000001 0.000002 -0.000002 0.662909 2.643735 20.148739 -3.947871 -2.327080 62.260330 16.631075 11.939501 -3.786017 -4.421760 12.103409 -12.551299 3.824830 -12.345966 -1.042553 4.523887 -9.504800 0.488640 3.860022 -12.119585 -3.867359 0.000001 0.000001 0.000002 3.545365 -9.668648 69.326707 8.886348 -3.241705 112.372560 5.374741 0.824716 34.768166 0.000001 0.000001 -0.000001 -20.941852 5.283964 0.717835 63.654617 21.294342 1.389502 -3.303558 0.481405 2.279899 -24.436376 5.847525 -15.291904 -0.000000 0.000001 -0.000000 -12.898401 -2.931313 7.248606 27.013192 -6.917639 -0.340261 -13.867116 0.588405 -4.242408 3.382035 0.000018 0.000001 -0.000000 0.000000 -0.000000 
-62.564690 84.326927 69.560577 -90.049002 -87.742270 -91.780537 1.818166 -1.398107 1.708335 3.579681 -2.533158 0.673620 3.579683 -2.533203 0.673622 -2.425336 1.360503 -0.177257 -0.112016 5.844289 -0.079481 -0.000000 0.000000 -0.000000 0.442763 -8.235284 -13.151889 -0.624791 -8.808440 -59.472260 19.132383 -19.316373 6.827554 -5.405346 -8.531766 1.793594 0.599976 6.911490 -23.883889 2.733494 1.542697 -36.765952 4.400530 -2.444493 -4.361225 -0.000001 0.000003 0.000003 25.111240 -2.687272 20.499098 9.304956 24.441175 -0.847868 -2.521161 -8.459268 -4.290581 -0.000001 0.000002 -0.000002 0.662909 2.643735 20.148739 -3.947871 -2.327080 62.260330 16.631075 11.939501 -3.786017 -4.421760 12.103409 -12.551299 3.824830 -12.345966 -1.042553 4.523887 -9.504800 0.488640 3.860022 -12.119585 -3.867359 0.000001 0.000001 0.000002 3.545365 -9.668648 69.326707 8.886348 -3.241705 112.372560 5.374741 0.824716 34.768166 0.000001 0.000001 -0.000001 -20.941852 5.283964 0.717835 63.654617 21.294342 1.389502 -3.303558 0.481405 2.279899 -24.436376 5.847525 -15.291904 -0.000000 0.000001 -0.000000 -12.898401 -2.931313 7.248606 27.013192 -6.917639 -0.340261 -13.867116 0.588405 -4.242408 3.382035 0.000018 0.000001 -0.000000 0.000000 -0.000000 
